<?xml version="1.0" ?><svg xmlns="http://www.w3.org/2000/svg" xmlns:xlink="http://www.w3.org/1999/xlink" version="1.1" viewBox="0 0 512 512" style="enable-background:new 0 0 512 512;" xml:space="preserve"><g id="_x33_0_Continuing_xA0_Education"><g><g><g><path d="M257.96,458.77v19.66c0,12.498-10.191,22.737-22.689,22.737H39.436c-12.546,0-22.737-10.239-22.737-22.737V223.855      c0-12.546,10.191-22.737,22.737-22.737h19.66V426.42c0,17.834,14.469,32.351,32.302,32.351H257.96z"/></g></g><g><path d="M375.527,145.78c-0.549,0-1.098-0.094-1.624-0.282l-35.052-12.59v38.727h73.339v-38.725l-35.038,12.588     C376.626,145.686,376.076,145.78,375.527,145.78z"/><path d="M495.038,120.939C491.144,61.813,443.603,14.561,384.43,11.052c-32.88-1.971-64.221,9.374-88.111,31.918     c-23.938,22.496-37.109,53.021-37.109,85.9c0,23.073,6.682,45.377,19.276,64.605l-27.015,52.348     c-2.211,4.23-1.442,9.085,1.923,12.45c2.067,2.115,4.759,3.173,7.499,3.173c1.683,0,3.365-0.385,4.951-1.202l54.415-28.025     c17.401,9.614,37.013,14.661,57.01,14.661c32.495,0,63.884-13.603,86.14-37.35C485.953,185.448,497.201,153.963,495.038,120.939z      M444.57,167.05c-6.356,0-11.529-5.173-11.529-11.529c0-4.639,2.767-8.62,6.722-10.45v-22.067l-17.96,6.452v46.986     c0,2.657-2.15,4.807-4.807,4.807h-82.938c-2.657,0-4.821-2.169-4.821-4.826v-46.969l-24.368-8.752     c-1.911-0.685-3.183-2.497-3.183-4.525c0-2.028,1.272-3.84,3.183-4.525l69.043-24.805c1.052-0.376,2.197-0.376,3.248,0     l69.034,24.795c0.049,0.018,0.085,0.054,0.133,0.072c0.153,0.06,0.278,0.155,0.423,0.231c0.368,0.191,0.707,0.408,1.008,0.679     c0.143,0.128,0.264,0.263,0.39,0.407c0.258,0.295,0.47,0.615,0.65,0.964c0.083,0.161,0.173,0.308,0.238,0.479     c0.203,0.535,0.341,1.098,0.341,1.693v28.902c3.956,1.83,6.722,5.811,6.722,10.45C456.1,161.877,450.926,167.05,444.57,167.05z"/><path d="M444.57,153.601c-1.056,0-1.915,0.859-1.915,1.92c0,1.056,0.859,1.915,1.915,1.915c1.056,0,1.915-0.859,1.915-1.915     C446.486,154.46,445.627,153.601,444.57,153.601z"/><polygon points="320.712,116.178 375.527,135.866 430.352,116.168 375.536,96.481    "/><path d="M254.066,218.039h0.913l12.45-24.131c-5.288-8.893-9.47-18.411-12.45-28.313c-4.519-4.567-9.037-9.133-13.556-13.652     v53.453C241.424,212.367,247.096,218.039,254.066,218.039z"/><path d="M260.892,271.059c-5.432,0-10.527-2.163-14.373-6.057c-6.297-6.345-7.739-15.623-3.557-23.65l7.259-14.036     c-10.431-1.827-18.411-10.96-18.411-21.92v-56.289H91.399c-12.498,0-22.689,10.239-22.689,22.737V426.42     c0,12.546,10.191,22.737,22.689,22.737h195.835c12.546,0,22.737-10.191,22.737-22.737V248.323L270.265,268.8     C267.333,270.29,264.16,271.059,260.892,271.059z M263.44,383.638H115.242c-2.644,0-4.807-2.163-4.807-4.807     s2.163-4.807,4.807-4.807H263.44c2.644,0,4.807,2.163,4.807,4.807S266.083,383.638,263.44,383.638z M263.44,337.299H115.242     c-2.644,0-4.807-2.115-4.807-4.807c0-2.644,2.163-4.807,4.807-4.807H263.44c2.644,0,4.807,2.163,4.807,4.807     C268.247,335.184,266.083,337.299,263.44,337.299z M263.44,291.008H115.242c-2.644,0-4.807-2.163-4.807-4.807     c0-2.692,2.163-4.807,4.807-4.807H263.44c2.644,0,4.807,2.115,4.807,4.807C268.247,288.845,266.083,291.008,263.44,291.008z"/></g></g></g><g id="Layer_1"/></svg>