<?xml version="1.0" ?><svg xmlns="http://www.w3.org/2000/svg" xmlns:xlink="http://www.w3.org/1999/xlink" version="1.0" viewBox="0 0 48 48" enable-background="new 0 0 48 48" xml:space="preserve"><g id="Layer_1"/><g id="_x33__x5F_Calculator"><path d="M40,5H8C6.346,5,5,6.346,5,8v13v19c0,1.654,1.346,3,3,3h18c0.553,0,1-0.447,1-1s-0.447-1-1-1h-7v-6h7c0.553,0,1-0.447,1-1   s-0.447-1-1-1h-7v-6h7c0.553,0,1-0.447,1-1s-0.447-1-1-1h-7v-6h10v3c0,0.552,0.447,1,1,1s1-0.448,1-1v-3h10v3c0,0.552,0.447,1,1,1   s1-0.448,1-1V8C43,6.346,41.654,5,40,5z M17,41H8c-0.551,0-1-0.448-1-1v-5h10V41z M7,33v-6h10v6H7z M17,25H7v-4v-2h10V25z M7,17V8   c0-0.551,0.449-1,1-1h32c0.552,0,1,0.449,1,1v9H7z M41,25H31c-1.103,0-2,0.897-2,2v14c0,1.103,0.897,2,2,2h10c1.103,0,2-0.897,2-2   V27C43,25.897,42.103,25,41,25z M41,41H31V27l10-0.002V41z M33,32c0-0.553,0.447-1,1-1h4c0.553,0,1,0.447,1,1s-0.447,1-1,1h-4   C33.447,33,33,32.553,33,32z M33,36c0-0.553,0.447-1,1-1h4c0.553,0,1,0.447,1,1s-0.447,1-1,1h-4C33.447,37,33,36.553,33,36z    M21.707,10.707L20.414,12l1.293,1.293c0.391,0.391,0.391,1.023,0,1.414C21.512,14.902,21.256,15,21,15s-0.512-0.098-0.707-0.293   L19,13.414l-1.293,1.293C17.512,14.902,17.256,15,17,15s-0.512-0.098-0.707-0.293c-0.391-0.391-0.391-1.023,0-1.414L17.586,12   l-1.293-1.293c-0.391-0.391-0.391-1.023,0-1.414s1.023-0.391,1.414,0L19,10.586l1.293-1.293c0.391-0.391,1.023-0.391,1.414,0   S22.098,10.316,21.707,10.707z M29,12c0,0.552-0.447,1-1,1h-1v1c0,0.552-0.447,1-1,1s-1-0.448-1-1v-1h-1c-0.552,0-1-0.448-1-1   s0.448-1,1-1h1v-1c0-0.552,0.447-1,1-1s1,0.448,1,1v1h1C28.553,11,29,11.448,29,12z M39,12c0,0.552-0.447,1-1,1h-5.828   c-0.553,0-1-0.448-1-1s0.447-1,1-1H38C38.553,11,39,11.448,39,12z M15,12c0,0.552-0.448,1-1,1h-4c-0.552,0-1-0.448-1-1s0.448-1,1-1   h4C14.552,11,15,11.448,15,12z M34.29,9.71C34.109,9.52,34,9.26,34,9c0-0.26,0.109-0.52,0.29-0.71c0.37-0.37,1.05-0.37,1.42,0   C35.89,8.48,36,8.74,36,9c0,0.26-0.11,0.52-0.29,0.71C35.52,9.89,35.26,10,35,10C34.729,10,34.479,9.89,34.29,9.71z M35.71,14.29   C35.89,14.48,36,14.74,36,15c0,0.26-0.11,0.52-0.29,0.71C35.52,15.89,35.26,16,35,16s-0.521-0.11-0.71-0.29   C34.109,15.52,34,15.26,34,15c0-0.13,0.03-0.26,0.08-0.38c0.05-0.13,0.12-0.24,0.21-0.33C34.67,13.92,35.33,13.92,35.71,14.29z"/></g></svg>