<?xml version="1.0" encoding="iso-8859-1"?>
<!-- Uploaded to: SVG Repo, www.svgrepo.com, Generator: SVG Repo Mixer Tools -->
<!DOCTYPE svg PUBLIC "-//W3C//DTD SVG 1.1//EN" "http://www.w3.org/Graphics/SVG/1.1/DTD/svg11.dtd">
<svg fill="#000000" height="800px" width="800px" version="1.1" id="Capa_1" xmlns="http://www.w3.org/2000/svg" xmlns:xlink="http://www.w3.org/1999/xlink" 
	 viewBox="0 0 318.59 318.59" xml:space="preserve">
<g>
	<path d="M106.949,62.947c0,28.861,23.482,52.342,52.346,52.342c28.861,0,52.343-23.48,52.343-52.342
		c0-28.87-23.481-52.357-52.343-52.357C130.432,10.59,106.949,34.077,106.949,62.947z M200.632,62.947
		c0,22.793-18.544,41.336-41.337,41.336c-22.795,0-41.34-18.543-41.34-41.336c0-22.801,18.545-41.351,41.34-41.351
		C182.088,21.596,200.632,40.147,200.632,62.947z"/>
	<path d="M60.633,60.531c-23.698,0-42.979,19.283-42.979,42.986c0,23.697,19.28,42.976,42.979,42.976
		c23.693,0,42.97-19.279,42.97-42.976C103.603,79.814,84.326,60.531,60.633,60.531z M60.633,135.488
		c-17.63,0-31.973-14.342-31.973-31.971c0-17.634,14.343-31.98,31.973-31.98c17.625,0,31.964,14.347,31.964,31.98
		C92.597,121.146,78.258,135.488,60.633,135.488z"/>
	<path d="M257.958,146.494c23.698,0,42.978-19.279,42.978-42.976c0-23.703-19.279-42.986-42.978-42.986
		c-23.698,0-42.978,19.283-42.978,42.986C214.98,127.215,234.26,146.494,257.958,146.494z M257.958,71.537
		c17.629,0,31.972,14.347,31.972,31.98c0,17.629-14.343,31.971-31.972,31.971c-17.63,0-31.973-14.342-31.973-31.971
		C225.985,85.884,240.328,71.537,257.958,71.537z"/>
	<path d="M276.814,154.236h-38.021c-3.478,0-6.901,0.438-10.23,1.284c-8.417-16.487-25.569-27.803-45.314-27.803h-2.422h-42.683
		h-2.423c-19.78,0-36.957,11.356-45.357,27.892c-3.442-0.905-6.983-1.371-10.571-1.373H41.774C18.739,154.236,0,172.977,0,196.01
		v106.487C0,305.536,2.463,308,5.503,308c3.039,0,5.503-2.464,5.503-5.503V196.01c0-16.965,13.803-30.768,30.769-30.768h38.022
		c2.248,0.006,4.477,0.258,6.658,0.744c-1.027,4.023-1.575,8.236-1.575,12.576v123.935c0,3.039,2.464,5.503,5.503,5.503
		s5.503-2.464,5.503-5.503V178.563c0-4.789,0.851-9.383,2.406-13.641c0.073-0.142,0.143-0.285,0.204-0.436
		c0.082-0.199,0.147-0.401,0.204-0.604c5.495-13.811,18.495-23.84,33.94-25.028v19.985c0,3.039,2.464,5.504,5.503,5.504h5.435
		l-14.829,108.76c-0.262,1.92,0.506,3.836,2.02,5.044l25.282,20.185c1.004,0.802,2.219,1.202,3.434,1.202
		c1.214,0,2.429-0.4,3.433-1.202l25.284-20.184c1.515-1.209,2.281-3.125,2.02-5.045l-14.831-108.76h5.436
		c3.04,0,5.503-2.465,5.503-5.504v-19.985c15.367,1.183,28.313,11.114,33.856,24.815c0.057,0.215,0.122,0.428,0.206,0.639
		c0.081,0.203,0.175,0.397,0.276,0.585c1.563,4.265,2.416,8.869,2.416,13.669v123.935c0,3.039,2.464,5.503,5.503,5.503
		c3.04,0,5.503-2.464,5.503-5.503V178.563c0-4.369-0.554-8.611-1.595-12.66c2.06-0.434,4.164-0.66,6.298-0.66h38.021
		c16.967,0,30.771,13.803,30.771,30.768v106.487c0,3.039,2.464,5.503,5.503,5.503c3.039,0,5.503-2.464,5.503-5.503V196.01
		C318.59,172.977,299.85,154.236,276.814,154.236z M175.323,138.724v14.614h-6.237h-19.203h-6.236v-14.614H175.323z
		 M178.893,271.496l-19.409,15.494l-19.408-15.494l14.609-107.152h9.597L178.893,271.496z"/>
</g>
</svg>