<svg id="Layer_1" data-name="Layer 1" xmlns="http://www.w3.org/2000/svg" viewBox="0 0 97.61 122.88"><defs><style>.cls-1{fill-rule:evenodd;}</style></defs><title>business-plan</title><path class="cls-1" d="M91.26,89.73l2.63,2.63a1.78,1.78,0,0,1,0,2.51L91.77,97a14.09,14.09,0,0,1,1.32,3.5h2.75a1.78,1.78,0,0,1,1.77,1.78V106a1.78,1.78,0,0,1-1.77,1.78h-3a14,14,0,0,1-1.55,3.4l1.94,1.94a1.78,1.78,0,0,1,0,2.51l-2.63,2.63a1.79,1.79,0,0,1-2.52,0L86,116.13a14.63,14.63,0,0,1-3.5,1.31v2.74A1.78,1.78,0,0,1,80.7,122H77a1.78,1.78,0,0,1-1.77-1.77v-3a14.33,14.33,0,0,1-3.4-1.55l-1.94,1.94a1.78,1.78,0,0,1-2.51,0L64.73,115a1.77,1.77,0,0,1,0-2.52l2.11-2.11a14.37,14.37,0,0,1-1.31-3.5H62.78A1.79,1.79,0,0,1,61,105v-3.72a1.78,1.78,0,0,1,1.78-1.77h3a14,14,0,0,1,1.55-3.4l-1.94-1.94a1.78,1.78,0,0,1,0-2.51L68,89.07a1.76,1.76,0,0,1,2.51,0l2.12,2.11a14,14,0,0,1,3.5-1.31V87.13a1.78,1.78,0,0,1,1.78-1.78h3.71a1.78,1.78,0,0,1,1.78,1.78v3a13.58,13.58,0,0,1,3.4,1.55l1.94-1.94a1.8,1.8,0,0,1,2.51,0ZM55.74,117.41a2.74,2.74,0,1,1,0,5.47H6.38A6.38,6.38,0,0,1,0,116.51V6.34A6.39,6.39,0,0,1,6.36,0H84.65A6.39,6.39,0,0,1,91,6.38V72.49a2.75,2.75,0,1,1-5.49,0V15.6h0a.88.88,0,0,0-.26-.63.93.93,0,0,0-.63-.27H6.38a1,1,0,0,0-.64.26.92.92,0,0,0-.26.65V116.5h0a.84.84,0,0,0,.27.61.92.92,0,0,0,.64.28H55.74ZM17.58,87.69V81.5H55.37v6.13l-37.79.06Zm0,16.49V98H44.24v6.13l-26.66.05ZM68.74,64.5v5.65h-8V64.5Zm-14.38-5V70.15h-8V59.52ZM40,44.3V70.15H32V44.3ZM25.62,33.64V70.15h-8V33.64Zm39.46,4,13.1,0a13.14,13.14,0,0,1-5.82,10.83L65.08,37.59ZM63.75,35l-.7-14a.48.48,0,0,1,.47-.52h.56A14.53,14.53,0,0,1,78.73,34a.49.49,0,0,1-.46.53l-14,1a.49.49,0,0,1-.53-.46.06.06,0,0,0,0,0Zm.83-13.53L65.23,34,77,32.89a11.71,11.71,0,0,0-4-7.84c-2.46-2.26-4.74-3.62-8.31-3.58ZM62.18,37l7,12.15a14,14,0,1,1-9-26l2,13.88ZM79.31,96.36a7.3,7.3,0,1,1-7.3,7.3,7.3,7.3,0,0,1,7.3-7.3Z"/></svg>