<?xml version="1.0" encoding="iso-8859-1"?>
<!-- Uploaded to: SVG Repo, www.svgrepo.com, Generator: SVG Repo Mixer Tools -->
<!DOCTYPE svg PUBLIC "-//W3C//DTD SVG 1.1//EN" "http://www.w3.org/Graphics/SVG/1.1/DTD/svg11.dtd">
<svg fill="#000000" version="1.1" id="Capa_1" xmlns="http://www.w3.org/2000/svg" xmlns:xlink="http://www.w3.org/1999/xlink" 
	 width="800px" height="800px" viewBox="0 0 32.001 32.001"
	 xml:space="preserve">
<g>
	<g>
		<path d="M9.26,6.904h14.687v1.753h1.973V6.346c0-0.781-0.633-1.415-1.415-1.415H8.702c-0.781,0-1.415,0.633-1.415,1.415V27.15
			c0,0.681,0.552,1.231,1.232,1.231h3.7V26.41H9.26V6.904z"/>
		<path d="M10.938,10.412c0,0.539,0.438,0.984,0.979,0.984h0.303v-1.97h-0.303C11.375,9.426,10.938,9.871,10.938,10.412z"/>
		<path d="M10.938,14.521c0,0.539,0.438,0.93,0.979,0.93h0.303V13.59h-0.303C11.375,13.59,10.938,13.98,10.938,14.521z"/>
		<path d="M10.938,18.631c0,0.539,0.438,0.986,0.979,0.986h0.303v-1.973h-0.303C11.375,17.645,10.938,18.09,10.938,18.631z"/>
		<path d="M10.938,22.686c0,0.539,0.438,0.986,0.979,0.986h0.303v-1.973h-0.303C11.375,21.699,10.938,22.145,10.938,22.686z"/>
		<path d="M2.904,1.973h14.685v1.753h1.973V1.415C19.562,0.633,18.927,0,18.146,0H2.163c-0.68,0-1.232,0.552-1.232,1.232v20.987
			c0,0.682,0.552,1.232,1.232,1.232h3.701v-1.973h-2.96V1.973z"/>
		<path d="M4.583,5.48c0,0.539,0.438,0.986,0.978,0.986h0.304V4.494H5.56C5.021,4.494,4.583,4.939,4.583,5.48z"/>
		<path d="M4.583,9.59c0,0.539,0.438,0.932,0.978,0.932h0.304V8.658H5.56C5.021,8.658,4.583,9.049,4.583,9.59z"/>
		<path d="M4.583,13.699c0,0.539,0.438,0.986,0.978,0.986h0.304v-1.973H5.56C5.021,12.713,4.583,13.158,4.583,13.699z"/>
		<path d="M4.583,17.754c0,0.539,0.438,0.986,0.978,0.986h0.304v-1.973H5.56C5.021,16.768,4.583,17.213,4.583,17.754z"/>
		<path d="M26.507,11.279c-0.625-0.626-1.473-0.978-2.357-0.978h-8.873c-0.781,0-1.415,0.633-1.415,1.415v18.87
			c0,0.781,0.633,1.415,1.415,1.415h14.376c0.781,0,1.416-0.634,1.416-1.415V17.229c0-0.884-0.351-1.73-0.975-2.354L26.507,11.279z
			 M26.246,13.773v0.006l1.271,1.258l-1.271-0.002V13.773z M29.096,16.992v13.035h-13.26V12.273h8.478l-0.012,3.333
			c-0.001,0.366,0.145,0.717,0.4,0.976c0.259,0.259,0.609,0.405,0.976,0.406L29.096,16.992z"/>
		<path d="M18.174,16.438h2.711c0.54,0,0.978-0.445,0.978-0.986c0-0.539-0.438-0.984-0.978-0.984h-2.711
			c-0.54,0-0.978,0.445-0.978,0.984C17.197,15.992,17.634,16.438,18.174,16.438z"/>
		<path d="M26.814,18.191h-8.64c-0.54,0-0.978,0.447-0.978,0.985c0,0.541,0.438,0.986,0.978,0.986h8.64
			c0.541,0,0.979-0.445,0.979-0.986C27.792,18.639,27.355,18.191,26.814,18.191z"/>
		<path d="M26.814,21.918h-8.64c-0.54,0-0.978,0.447-0.978,0.986s0.438,0.986,0.978,0.986h8.64c0.541,0,0.979-0.447,0.979-0.986
			S27.355,21.918,26.814,21.918z"/>
		<path d="M26.814,25.645h-8.64c-0.54,0-0.978,0.445-0.978,0.986c0,0.539,0.438,0.984,0.978,0.984h8.64
			c0.541,0,0.979-0.445,0.979-0.984C27.792,26.09,27.355,25.645,26.814,25.645z"/>
	</g>
</g>
</svg>